<svg width="32" height="32" viewBox="0 0 400 360" fill="none" xmlns="http://www.w3.org/2000/svg">
    <g clip-path="url(#clip0_231_1134)">
        <path fill-rule="evenodd" clip-rule="evenodd"
            d="M170.721 332.001C125.404 326.81 85.1104 300.55 61.7492 260.98C57.2504 253.36 49.9635 237.439 49.9635 235.23C49.9635 234.972 54.0355 234.76 59.012 234.76H68.0606L69.238 237.559C78.8856 260.495 97.5795 282.396 119.007 295.866C135.216 306.056 153.256 312.451 172.321 314.763C179.172 315.595 195.388 315.605 201.91 314.782C231.475 311.052 256.619 298.872 277.395 278.216C289.511 266.17 298.687 252.81 304.957 238.093L306.376 234.76H315.455C320.477 234.76 324.534 234.974 324.534 235.24C324.534 236.337 320.567 245.868 317.687 251.693C295.529 296.499 252.853 326.392 202.978 332.042C194.265 333.029 179.527 333.011 170.723 332.004L170.721 332.001ZM0.917666 185.843C0.946013 177.084 2.37282 162.477 4.18529 152.388C17.8755 76.1818 79.0048 15.7472 155.688 2.60957C166.708 0.721168 175.119 0.0652746 188.045 0.0861754C216.402 0.130396 241.923 5.92591 267.461 18.1149C286.863 27.3747 303.35 39.1174 318.938 54.7774C337.37 73.2952 350.377 92.9318 360.04 116.834C362.748 123.531 367.178 137.077 367.178 138.66C367.178 139.167 365.015 139.327 358.138 139.327H349.097L347.949 135.461C344.624 124.259 336.623 106.996 329.849 96.4076C301.067 51.4274 254.999 23.2095 202.275 18.2696C193.637 17.4603 172.302 17.9106 164.584 19.065C133.431 23.7252 107.63 34.679 83.0143 53.6953C75.8393 59.238 60.5477 74.5221 54.9483 81.7478C36.8727 105.072 25.5682 130.783 20.9609 159.054C19.8401 165.931 19.0386 174.315 19.0315 179.237C19.0283 181.478 18.877 184.212 18.6952 185.312L18.3648 187.311H0.910522L0.917666 185.843ZM50.112 138.659C55.2495 125.75 57.0671 121.89 61.7654 113.911C67.9359 103.432 75.6416 93.5254 84.6784 84.4545C110.219 58.8172 145.846 43.2917 181.646 42.1994L187.244 42.0285L187.391 50.692L187.537 59.3554L183.925 59.3592C170.517 59.3781 151.765 63.3897 137.928 69.1988C122.078 75.8534 109.686 84.281 96.8294 97.1511C85.2811 108.71 78.9447 117.525 72.1729 131.451L68.3541 139.304L59.1003 139.315C51.9078 139.323 49.9056 139.177 50.112 138.659ZM186.98 363.655V354.864L189.779 354.527C191.318 354.342 194.138 354.189 196.044 354.186C201.379 354.179 213.087 352.681 221.54 350.927C254.548 344.075 284.457 327.539 308.06 303.093C325.995 284.519 339.72 261.953 347.432 238.357L348.608 234.759H357.628C364.918 234.759 366.648 234.899 366.648 235.49C366.648 236.896 362.385 249.541 359.751 255.948C349.692 280.42 335.497 301.363 316.438 319.852C283.638 351.67 241.388 369.776 194.574 372.074L186.977 372.448L186.98 363.655Z"
            fill="url(#paint0_linear_231_1134)" />
        <path
            d="M28.1889 224.865L29.2336 211.282L30.5916 184.752L31.1662 165.97C31.201 163.954 31.2184 161.937 31.2184 159.921C31.2184 158.4 31.201 155.907 31.1662 152.44C35.7625 152.546 39.4535 152.599 42.2393 152.599C44.9206 152.599 48.5943 152.529 53.2603 152.387C57.9264 152.21 61.8786 152.122 65.1169 152.122C69.7829 152.122 73.2302 152.423 75.4587 153.024C77.7221 153.625 79.7591 154.58 81.5698 155.889C83.3805 157.163 84.8778 158.666 86.0616 160.399C87.2455 162.132 88.1334 164.113 88.7254 166.342C89.3174 168.535 89.6134 170.781 89.6134 173.08C89.6134 177.82 88.4817 182.153 86.2183 186.079C83.9549 190.005 80.7688 192.941 76.6598 194.887C72.5508 196.833 67.937 197.805 62.8184 197.805C60.938 197.805 58.7618 197.593 56.2895 197.168C56.011 195.541 55.4886 193.118 54.7226 189.899C53.9565 186.68 53.3298 184.293 52.8422 182.737C54.3744 183.055 55.9762 183.214 57.6476 183.214C61.1646 183.214 63.7761 182.365 65.4822 180.667C67.2232 178.934 68.0938 176.829 68.0938 174.353C68.0938 173.151 67.9022 172.089 67.5192 171.17C67.1362 170.215 66.5268 169.437 65.6911 168.835C64.8554 168.234 63.9326 167.845 62.9228 167.668C61.913 167.491 60.7639 167.403 59.4755 167.403C58.222 167.403 56.9162 167.438 55.5582 167.509L51.1707 167.828C50.718 174.654 50.3698 182.242 50.126 190.589C49.6733 205.799 49.447 214.926 49.447 217.967V224.865L39.053 224.759C37.5905 224.759 33.9693 224.794 28.1889 224.865Z"
            fill="#F8D210" />
        <path
            d="M96.1436 224.864C96.8052 218.639 97.3275 213.032 97.7105 208.045C98.0936 203.057 98.4244 197.274 98.7029 190.695C98.9815 184.115 99.1905 177.182 99.3297 169.896C99.469 162.574 99.5386 156.755 99.5386 152.44C103.891 152.546 107.408 152.599 110.089 152.599C112.875 152.599 116.27 152.528 120.275 152.387C124.279 152.21 128.179 152.122 131.974 152.122C136.431 152.122 140.401 152.298 143.883 152.652C146.495 152.9 148.863 153.413 150.987 154.191C153.146 154.969 154.957 155.924 156.419 157.056C157.881 158.153 159.1 159.391 160.075 160.77C161.05 162.15 161.799 163.777 162.321 165.651C162.878 167.491 163.157 169.472 163.157 171.594C163.157 173.964 162.861 176.192 162.269 178.28C161.677 180.331 160.737 182.277 159.448 184.116C158.195 185.92 156.593 187.494 154.643 188.838C152.728 190.147 150.029 191.491 146.547 192.871L149.263 199.609C150.029 201.484 150.848 203.394 151.718 205.34L158.717 220.886C159.031 221.558 159.588 222.884 160.389 224.865C154.643 224.794 150.778 224.759 148.793 224.759C146.286 224.759 142.177 224.794 136.466 224.865C135.909 223.026 134.899 219.612 133.437 214.625C132.845 212.538 132.34 210.928 131.922 209.796C131.086 207.285 129.85 203.765 128.214 199.238L122.834 184.222C124.714 184.576 126.56 184.753 128.37 184.753C130.912 184.753 133.211 184.364 135.265 183.586C137.354 182.807 138.921 181.605 139.966 179.978C141.045 178.35 141.585 176.635 141.585 174.831C141.585 173.31 141.184 171.984 140.383 170.852C139.583 169.685 138.312 168.818 136.57 168.252C134.864 167.686 132.218 167.403 128.631 167.403C127.412 167.403 126.141 167.438 124.818 167.509C123.53 167.545 122.015 167.58 120.274 167.616C119.821 174.867 119.421 183.71 119.073 194.145C118.724 204.58 118.498 214.82 118.393 224.866C112.578 224.795 108.8 224.759 107.059 224.759C105.04 224.759 101.402 224.794 96.1436 224.864Z"
            fill="#F8D210" />
        <path
            d="M171.407 224.864C173.427 196.462 174.436 174.602 174.436 159.286L174.384 152.441C180.478 152.512 184.552 152.547 186.606 152.547C187.547 152.547 191.29 152.512 197.836 152.441C197.21 160.4 196.705 167.934 196.322 175.044C195.834 184.948 195.486 194.216 195.277 202.847C195.068 211.442 194.964 218.782 194.964 224.866L184.256 224.759C182.167 224.759 177.884 224.794 171.407 224.864Z"
            fill="#F8D210" />
        <path
            d="M206.56 224.865L207.866 214.147L211.104 176.953L212.723 152.44C219.13 152.511 224.162 152.546 227.818 152.546C230.848 152.546 235.479 152.511 241.712 152.44C242.165 155.482 242.548 157.798 242.861 159.39C243.174 160.947 243.94 164.024 245.159 168.622C246.413 173.185 247.405 177.147 248.136 180.507C248.903 183.832 250.034 189.545 251.532 197.645C253.064 192.092 254.457 187.316 255.71 183.319C256.964 179.322 258.531 174.777 260.411 169.683C262.291 164.59 263.475 161.265 263.963 159.708C264.485 158.117 265.181 155.694 266.052 152.439C271.275 152.51 276.394 152.546 281.408 152.546C284.821 152.546 289.556 152.51 295.615 152.439C294.953 164.36 294.518 174.6 294.309 183.16C293.857 199.926 293.63 211.458 293.63 217.754C293.63 219.063 293.665 221.433 293.735 224.864C289.138 224.793 285.918 224.758 284.072 224.758C281.391 224.758 278.1 224.793 274.2 224.864C274.479 221.68 274.827 214.111 275.245 202.155C275.662 190.164 275.871 182.506 275.871 179.181C275.871 177.731 275.837 175.714 275.767 173.132L268.925 194.727L259.105 224.864C254.578 224.793 251.462 224.758 249.755 224.758C247.597 224.758 244.288 224.793 239.831 224.864L233.407 195.682L229.646 180.136C229.507 179.535 229.35 178.792 229.176 177.907C229.002 177.023 228.723 175.467 228.34 173.238L227.035 187.936L225.311 218.073L225.154 224.864C220.349 224.793 217.285 224.758 215.961 224.758C214.151 224.758 211.017 224.794 206.56 224.865Z"
            fill="#F8D210" />
        <path
            d="M306.218 224.865C307.088 215.739 307.715 208.098 308.098 201.943C308.516 195.789 308.916 187.618 309.299 177.43C309.717 167.208 309.926 160.434 309.926 157.109L309.874 152.44C318.092 152.511 328.033 152.546 339.698 152.546C350.458 152.546 359.947 152.511 368.164 152.44L368.06 154.191C368.025 154.615 367.938 156.154 367.799 158.807L367.485 164.59C367.416 165.828 367.381 167.084 367.381 168.357C360.66 168.074 355.019 167.933 350.458 167.933C345.443 167.933 342.048 167.951 340.272 167.986C338.531 167.986 335.798 168.057 332.072 168.198L331.445 180.348C335.554 180.455 340.342 180.508 345.809 180.508C347.759 180.508 352.947 180.384 361.374 180.136C361.026 184.664 360.695 190.058 360.382 196.319C354.358 196.248 349.726 196.213 346.488 196.213C341.683 196.213 336.303 196.336 330.348 196.584L329.722 209.477H335.728C337.504 209.477 341.178 209.424 346.749 209.318L357.562 209.053C359.163 209.018 361.845 208.876 365.605 208.628C365.188 213.864 364.839 219.276 364.561 224.864C356.064 224.794 346.75 224.758 336.616 224.758L313.634 224.811L306.218 224.865Z"
            fill="#F8D210" />
    </g>
    <defs>
        <linearGradient id="paint0_linear_231_1134" x1="0.914907" y1="186.259" x2="367.184"
            y2="186.259" gradientUnits="userSpaceOnUse">
            <stop stop-color="#1A754E" />
            <stop offset="0.89711" stop-color="#F8D210" />
        </linearGradient>
        <clipPath id="clip0_231_1134">
            <rect width="367.254" height="372.362" fill="white"
                transform="translate(0.910522 0.0856934)" />
        </clipPath>
    </defs>
</svg>